<?xml version="1.0" standalone="no"?>
<!DOCTYPE svg PUBLIC "-//W3C//DTD SVG 20010904//EN"
 "http://www.w3.org/TR/2001/REC-SVG-20010904/DTD/svg10.dtd">
<svg version="1.0" xmlns="http://www.w3.org/2000/svg"
 width="241.000000pt" height="289.000000pt" viewBox="0 0 241.000000 289.000000"
 preserveAspectRatio="xMidYMid meet">
<metadata>
Created by potrace 1.16, written by Peter Selinger 2001-2019
</metadata>
<g transform="translate(0.000000,289.000000) scale(0.100000,-0.100000)"
fill="#000000" stroke="none">
<path d="M695 2879 c4 -6 -9 -7 -36 -3 -30 5 -40 4 -35 -4 5 -8 -2 -10 -24 -6
-19 4 -30 2 -30 -4 0 -6 -7 -9 -15 -6 -8 4 -15 2 -15 -4 0 -6 -10 -8 -22 -4
-14 3 -19 1 -14 -6 5 -8 2 -10 -8 -6 -9 3 -16 1 -16 -5 0 -6 -7 -8 -17 -4 -12
5 -14 3 -8 -7 5 -8 4 -11 -3 -6 -12 7 -62 -13 -62 -26 0 -5 -5 -6 -10 -3 -6 3
-13 -1 -16 -9 -3 -9 -10 -13 -15 -10 -5 3 -20 -6 -34 -20 -14 -14 -25 -22 -25
-19 0 3 -39 -34 -86 -82 -47 -48 -83 -89 -80 -92 2 -3 -4 -13 -15 -24 -11 -11
-17 -24 -14 -28 2 -5 -2 -12 -11 -15 -9 -4 -14 -13 -10 -21 3 -8 1 -15 -5 -15
-6 0 -7 -4 -4 -10 3 -5 1 -10 -5 -10 -6 0 -8 -4 -5 -10 3 -5 1 -10 -5 -10 -7
0 -9 -7 -6 -16 4 -10 2 -13 -6 -8 -7 5 -9 0 -6 -14 4 -12 2 -22 -4 -22 -6 0
-8 -9 -5 -20 3 -11 1 -20 -5 -20 -6 0 -7 -13 -3 -31 5 -22 4 -29 -4 -25 -8 5
-11 -293 -11 -1101 0 -609 3 -1118 6 -1131 l6 -22 682 0 c517 0 685 3 694 12
9 9 12 72 12 223 0 188 2 212 18 225 14 13 48 15 195 12 123 -2 177 0 172 7
-4 7 5 9 26 4 24 -5 30 -3 24 7 -5 9 -2 10 14 5 12 -4 21 -2 21 4 0 6 6 8 14
5 7 -3 20 1 27 8 8 7 21 14 29 16 8 2 21 10 27 19 7 9 13 13 13 9 0 -4 27 20
60 54 34 33 58 65 55 70 -3 6 -1 10 5 10 6 0 8 5 5 10 -3 6 -1 10 5 10 6 0 8
4 5 10 -3 5 -1 10 5 10 7 0 10 7 6 15 -3 8 -1 15 5 15 7 0 9 10 5 25 -4 15 -2
25 4 25 7 0 10 70 10 213 -1 116 2 220 6 230 6 17 17 19 96 15 71 -2 91 0 98
12 5 8 10 11 10 6 0 -5 7 -3 15 4 8 7 12 16 9 21 -3 5 0 9 6 9 6 0 8 5 5 10
-3 6 -1 10 4 10 6 0 11 14 11 30 0 17 -4 30 -10 30 -5 0 -7 7 -4 15 4 8 1 15
-5 15 -6 0 -8 6 -5 14 3 7 -2 20 -10 29 -8 8 -12 17 -9 21 4 3 1 6 -5 6 -6 0
-9 7 -6 15 4 8 1 15 -6 15 -6 0 -8 5 -5 10 3 6 2 10 -4 10 -6 0 -7 7 -4 17 4
11 3 14 -5 9 -8 -4 -10 -2 -6 7 3 8 -2 21 -10 30 -8 8 -12 17 -9 21 4 3 1 6
-5 6 -6 0 -9 6 -6 14 3 7 -2 20 -10 29 -8 8 -12 17 -9 21 4 3 1 6 -5 6 -6 0
-9 6 -6 14 3 7 -2 20 -10 29 -8 8 -12 17 -9 21 4 3 1 6 -5 6 -6 0 -9 6 -6 14
3 7 -2 20 -10 29 -8 8 -12 17 -9 21 4 3 1 6 -5 6 -6 0 -9 7 -6 15 4 8 2 15 -4
15 -6 0 -8 10 -4 22 3 15 2 19 -7 14 -9 -6 -10 0 -5 20 4 15 3 25 -2 21 -5 -3
-8 75 -6 185 3 147 1 188 -9 182 -9 -5 -11 1 -6 24 4 17 2 34 -4 37 -5 4 -7
15 -4 26 4 11 2 19 -5 19 -7 0 -9 8 -5 20 4 12 2 20 -5 20 -6 0 -8 5 -5 10 3
6 2 10 -4 10 -6 0 -8 7 -5 15 4 8 1 15 -6 15 -6 0 -8 5 -5 10 3 6 1 10 -5 10
-6 0 -8 5 -5 10 3 6 1 10 -4 10 -6 0 -10 3 -10 8 4 22 -9 38 -102 131 -93 93
-109 106 -131 102 -5 0 -8 4 -8 10 0 5 -4 7 -10 4 -5 -3 -10 -1 -10 6 0 7 -3
10 -6 6 -4 -3 -13 1 -21 9 -9 8 -22 13 -29 10 -8 -3 -14 -1 -14 5 0 6 -7 9
-15 5 -8 -3 -15 -1 -15 5 0 7 -10 9 -25 5 -16 -4 -25 -2 -25 5 0 7 -11 9 -30
6 -17 -4 -30 -2 -30 3 0 7 -166 10 -465 10 -305 0 -464 -4 -460 -11z m730
-317 c75 -37 116 -104 116 -191 0 -32 -6 -73 -14 -92 -18 -44 -72 -98 -114
-115 -44 -19 -131 -17 -173 4 l-34 17 -170 -180 c-173 -183 -206 -214 -206
-196 0 6 -14 26 -30 45 -17 19 -27 36 -23 38 5 1 86 85 181 185 l174 182 -11
52 c-40 185 139 333 304 251z m245 -823 c133 -28 197 -170 135 -296 -43 -87
-135 -128 -240 -109 -49 9 -121 77 -136 126 -7 21 -19 40 -29 43 -10 2 -134
22 -277 43 l-260 39 5 50 c3 27 5 51 6 52 2 2 103 -13 227 -32 123 -19 247
-37 274 -40 l50 -6 27 45 c26 45 67 73 123 87 43 10 39 10 95 -2z m-831 -281
c20 -17 127 -119 239 -226 l202 -195 -29 -18 c-16 -9 -32 -23 -37 -31 -4 -7 1
-5 12 4 56 49 150 61 220 29 140 -64 141 -282 1 -350 -100 -48 -221 -4 -263
96 -20 46 -17 122 4 162 l18 34 -248 236 c-216 204 -246 236 -228 243 11 4 30
17 42 28 12 11 24 20 26 20 2 0 21 -14 41 -32z"/>
</g>
</svg>
